<svg xmlns="http://www.w3.org/2000/svg" aria-hidden="true" overflow="hidden" style="position:absolute;width:0;height:0"><defs><symbol id="icon-company-logo" viewBox="0 0 109 32"><path d="M19.1.789c.483.24 1.025.928 1.389 1.335 3.125 3.491 4.764 7.937 4.474 12.617-.281 4.529-2.517 8.55-5.875 11.523-.636-.435-1.217-1.053-1.726-1.628-2.852-3.225-4.415-7.757-4.143-12.056.281-4.433 2.547-8.868 5.88-11.79z"/><path d="M32.398 7.128c.009.016.02.031.028.047.178.362.229.937.274 1.339.235 2.09.041 4.186-.695 6.165-1.837 4.945-6.082 8.585-10.777 10.742-.055-.001-.018.004-.103-.045.287-.469.687-.889 1.018-1.33.506-.688.965-1.41 1.373-2.16 1.438-2.646 2.126-5.556 2.123-8.557-.001-.852-.02-1.704-.267-2.526.44-.489.98-.9 1.503-1.297 1.687-1.277 3.388-2.166 5.521-2.379zM5.741 7.148c.253.01.509.043.759.081 1.928.293 3.615 1.32 5.122 2.509.42.332.88.678 1.197 1.113-.801 4.115.261 8.429 2.389 11.988.34.566.707 1.114 1.1 1.645.188.253.411.482.579.747l-.06.077c-3.508-1.5-6.795-4.155-8.909-7.328C5.7 14.651 4.967 11.065 5.74 7.149z"/><path d="M35.83 16.331c.559-.067 1.813-.137 2.282.161.024.07.031.077.033.163.009.328-.205.82-.316 1.126a13.085 13.085 0 0 1-3.699 5.478c-3.292 2.911-7.559 3.955-11.868 3.678-.814-.085-1.653-.142-2.435-.391 3.61-1.11 7.045-3.379 9.533-6.212.612-.697 1.06-1.505 1.655-2.206 1.13-1.33 3.178-1.681 4.815-1.797zM1.341 16.441c1.682-.198 3.965.079 5.351 1.126.824.623 1.32 1.779 2.001 2.567a21.285 21.285 0 0 0 7.795 5.683c.639.273 1.296.559 1.971.725l-1.35.226c-3.931.566-8.004-.137-11.367-2.323-2.29-1.49-3.903-3.532-4.851-6.08-.139-.374-.348-.779-.419-1.168-.042-.227-.005-.377.128-.57.211-.156.486-.154.74-.185zM69.989 13.043c1.31-.011 2.74-.128 4.033.061.833.121 1.678.42 2.185 1.134.372.526.493 1.263.378 1.891-.141.768-.628 1.212-1.244 1.626.148.062.293.131.435.206.545.295.931.805 1.09 1.401.218.814.044 1.654-.362 2.376-.091.138-.199.26-.319.374-1.243 1.18-3.97.952-5.577.937-.309-.003-.716.025-.946-.21a.758.758 0 0 1-.086-.328c-.106-1.725-.01-3.516-.01-5.247-.001-1.226-.123-2.823.037-4.009.123-.154.202-.154.387-.211zm4.388 6.07c-.694-.453-1.862-.322-2.668-.321l.004 2.236c.892.006 1.935.144 2.726-.334.186-.275.373-.683.319-1.025-.039-.249-.175-.421-.382-.556zm-.331-3.977c-.662-.398-1.591-.297-2.335-.294v2.147c.799.006 1.751.124 2.449-.327.188-.269.369-.655.298-.994-.052-.249-.2-.405-.412-.532zM57.774 15.368c.2-.017.401-.006.598.032.599.12.892.561 1.213 1.031.018-.164.03-.342.068-.503a.505.505 0 0 1 .281-.35c.242-.129.763-.138 1.016-.044.185.069.391.23.455.423.188.573.115 6.176.006 6.943a4.048 4.048 0 0 1-.484 1.446c-.411.714-1.11 1.181-1.895 1.394-1.107.299-2.367.204-3.355-.391-.441-.265-.647-.608-.763-1.099.037-.178.081-.351.234-.466.495-.374 1.565.254 2.114.356.473.088.983.04 1.376-.258.648-.489.755-1.392.866-2.137-.434.463-.845.837-1.485.993a2.613 2.613 0 0 1-2.049-.342c-.785-.52-1.224-1.413-1.385-2.319-.196-1.104-.025-2.425.644-3.349.638-.88 1.516-1.204 2.546-1.362zm.118 1.689c-.516.195-.802.434-1.023.948-.273.632-.281 1.549-.014 2.184.141.334.422.686.778.806.234.079.517.044.758.027.425-.152.668-.33.869-.742.31-.634.319-1.529.082-2.191-.137-.385-.408-.763-.794-.929a1.532 1.532 0 0 0-.657-.102zM100.658 15.428c.507-.067 1.007-.044 1.486.154.661.274 1.005.773 1.266 1.41.134-.336.282-.675.52-.954.375-.442.867-.617 1.437-.639.656-.025 1.328.125 1.808.596.316.31.51.725.616 1.15.282 1.133.124 3.566.128 4.845.001.196.025.815-.128.931-.261.197-1.184.153-1.509.107-.19-.026-.306-.128-.385-.3-.12-.265-.056-.737-.052-1.03.013-.949.246-3.573-.315-4.265a.73.73 0 0 0-.518-.273c-.303-.021-.688.083-.907.299-.779.763-.521 3.475-.514 4.541.002.215.009.451-.017.665-.012.094-.045.204-.131.253-.332.19-1.139.162-1.505.076-.191-.045-.272-.109-.34-.294-.112-.307-.049-.761-.045-1.085.017-.951.242-3.316-.24-4.029a.9.9 0 0 0-.617-.386c-.289-.047-.59-.009-.825.177-.946.747-.688 3.365-.684 4.447.001.26.054.632-.006.875-.025.101-.054.163-.142.22-.305.2-1.13.157-1.493.085-.153-.03-.25-.124-.317-.263-.093-.197-.12-5.887-.086-6.451.01-.157.043-.324.114-.466a.724.724 0 0 1 .437-.361c.451-.145 1.012.016 1.411.237.095.356.027.821.012 1.192.047-.094.094-.189.143-.282.351-.679.682-.956 1.398-1.184zM92.471 15.457a3.83 3.83 0 1 1 .158 7.655 3.83 3.83 0 0 1-.158-7.654zm.437 1.696c-.223-.066-.465-.051-.693-.03-.563.25-.869.537-1.087 1.125-.261.703-.219 1.686.115 2.357.18.361.46.655.849.785.266.089.515.104.788.04.54-.226.863-.514 1.084-1.067.278-.693.275-1.621-.044-2.3-.2-.425-.555-.774-1.01-.909zM50.042 15.468a3.827 3.827 0 1 1 .345 7.646 3.827 3.827 0 0 1-.345-7.646zm.597 1.705c-.245-.084-.497-.083-.75-.051-.565.279-.887.571-1.102 1.188-.244.699-.209 1.698.143 2.354.192.358.483.62.875.74.24.074.512.081.757.023.538-.224.855-.514 1.071-1.066.275-.7.252-1.624-.065-2.308-.186-.402-.504-.733-.928-.879zM83.894 15.51a3.823 3.823 0 0 1 4.166 5.185 3.825 3.825 0 0 1-7.336-.84 3.824 3.824 0 0 1 3.169-4.345zm.313 1.609c-.567.241-.894.514-1.123 1.101-.269.689-.242 1.642.076 2.311.192.404.52.736.952.873.216.069.461.068.684.041.566-.239.895-.506 1.129-1.094.272-.683.268-1.625-.048-2.292-.188-.396-.509-.731-.928-.88-.237-.084-.493-.081-.741-.061zM64.78 15.431c.479-.057.94-.048 1.412.061.716.166 1.317.583 1.682 1.225.195.344.309.721.363 1.112.084.603.131 4.421-.007 4.946-.115.147-.231.201-.41.24-.306.065-.977.103-1.224-.126-.216-.2-.173-.617-.175-.885-.359.53-.721.957-1.373 1.12-.728.181-1.404-.031-2.031-.393-.268-.247-.472-.5-.587-.85-.194-.59-.131-1.386.171-1.929.733-1.318 2.459-1.238 3.721-1.61l.079-.025c-.051-.158-.101-.319-.167-.472-.714-1.647-2.495.153-3.356-.3a.715.715 0 0 1-.343-.464c-.059-.25.008-.413.145-.62.462-.705 1.329-.883 2.101-1.03zm1.534 4.399c-.525.144-1.509.303-1.822.779a.587.587 0 0 0-.044.53c.047.121.138.226.219.326.542.037.882-.003 1.296-.38.251-.229.483-.597.471-.952-.003-.088-.028-.178-.048-.263l-.071-.041zM43.376 16.849c.188-.597 1.65-3.454 2.116-3.722.242-.139 1.534-.161 1.794-.042.167.076.185.121.26.277-.133.74-1.767 3.222-2.251 4.032l-.849 1.412c.003.849.153 3.44-.143 4.055a.73.73 0 0 1-.307.154c-.399.093-1.192.066-1.544-.156-.272-.358-.13-3.333-.129-3.991-.434-.694-3.236-5.168-3.162-5.595.093-.133.152-.166.302-.225.473-.014 1.434-.139 1.825.098.507.308 1.901 3.076 2.089 3.705zM78.075 13.044c.496-.013 1.307-.137 1.735.119.12.816.073 1.681.075 2.504l.005 3.814c0 .996.11 2.194-.019 3.172-.025.195-.145.258-.287.37-.516.017-1.311.145-1.736-.191-.1-.382-.163-9.187-.067-9.534.046-.165.154-.184.293-.254zM19.303 26.808a11.89 11.89 0 0 0 2.089.554c1.236.2 2.672.142 3.782.785.82.476 1.66 1.589 1.891 2.512.042.169.03.183-.057.324-.858.309-1.692.236-2.546-.044-2.057-.673-4.154-2.172-5.16-4.132zM18.916 26.813c.043-.004.085.019.127.031-.002.02-.002.04-.006.059-.106.438-1.799 2.223-2.19 2.532-1.351 1.067-3.357 1.914-5.101 1.706-.047-.01-.111-.023-.154-.042-.094-.043-.153-.078-.178-.18-.066-.273.089-.589.213-.826.399-.763 1.025-1.659 1.808-2.072.966-.508 2.391-.506 3.465-.697.688-.122 1.35-.309 2.017-.512z"/></symbol><symbol id="icon-menu" viewBox="0 0 32 32"><path d="M5.333 8h21.333v2.667H5.333V8zm0 6.667h21.333v2.667H5.333v-2.667zm0 6.666h21.333V24H5.333v-2.667z"/></symbol><symbol id="icon-close" viewBox="0 0 32 32"><path d="m21.589 8.459-5.657 5.656-5.656-5.656-1.885 1.885L14.047 16l-5.656 5.656 1.885 1.885 5.656-5.656 5.657 5.656 1.885-1.885L17.818 16l5.656-5.656-1.885-1.885z"/></symbol><symbol id="icon-check" viewBox="0 0 32 32"><path d="M26.898 10.44 13.33 24.008a.638.638 0 0 1-.908 0l-6.899-6.899a.638.638 0 0 1 0-.908l.896-.896a.638.638 0 0 1 .908 0l5.542 5.542L25.093 8.623a.65.65 0 0 1 .909 0l.896.909a.638.638 0 0 1 0 .908z"/></symbol><symbol id="icon-facebook" viewBox="0 0 31 32"><path d="M28.16 16.388c0-7.112-5.731-12.878-12.8-12.878S2.56 9.276 2.56 16.388c0 6.428 4.681 11.756 10.8 12.722v-8.999h-3.25v-3.723h3.25v-2.837c0-3.228 1.911-5.01 4.835-5.01 1.401 0 2.865.252 2.865.252v3.169h-1.614c-1.59 0-2.086.993-2.086 2.011v2.416h3.55l-.567 3.723H17.36v8.999c6.119-.966 10.8-6.294 10.8-12.722z"/></symbol><symbol id="icon-instagram" viewBox="0 0 31 32"><path d="M15.358 6.555c3.078 0 3.442.014 4.652.068 1.125.05 1.732.238 2.137.396.536.207.922.459 1.323.86.405.405.652.788.864 1.323.158.405.346 1.017.396 2.137.054 1.215.068 1.579.068 4.653s-.014 3.442-.068 4.653c-.05 1.125-.238 1.732-.396 2.137a3.546 3.546 0 0 1-.86 1.322 3.62 3.62 0 0 1-1.323.864c-.405.158-1.017.346-2.137.396-1.215.054-1.58.068-4.653.068s-3.442-.014-4.653-.068c-1.125-.05-1.732-.238-2.137-.396a3.558 3.558 0 0 1-1.323-.86 3.62 3.62 0 0 1-.864-1.323c-.158-.405-.346-1.017-.396-2.137-.054-1.215-.068-1.58-.068-4.653s.014-3.442.068-4.653c.05-1.125.238-1.732.396-2.137.207-.536.459-.922.86-1.323a3.62 3.62 0 0 1 1.323-.864c.405-.158 1.017-.346 2.137-.396 1.21-.054 1.575-.068 4.653-.068h.001zm0-2.074c-3.127 0-3.518.014-4.747.068-1.224.054-2.065.252-2.794.536a5.609 5.609 0 0 0-2.042 1.332 5.636 5.636 0 0 0-1.332 2.038c-.284.734-.482 1.57-.536 2.794-.054 1.233-.068 1.624-.068 4.751s.014 3.518.068 4.747c.054 1.224.252 2.065.536 2.794.297.76.688 1.404 1.332 2.042a5.65 5.65 0 0 0 2.038 1.328c.734.284 1.57.482 2.794.536 1.228.054 1.62.068 4.747.068s3.519-.014 4.747-.068c1.224-.054 2.065-.252 2.794-.536.756-.292 1.4-.688 2.038-1.328s1.035-1.282 1.328-2.038c.284-.734.482-1.57.536-2.794.054-1.228.068-1.62.068-4.747s-.014-3.518-.068-4.747c-.054-1.224-.252-2.065-.536-2.794a5.405 5.405 0 0 0-1.318-2.047 5.621 5.621 0 0 0-2.038-1.327c-.734-.284-1.57-.482-2.794-.536-1.233-.058-1.624-.072-4.751-.072l-.001.001z"/><path d="M15.357 10.082a5.918 5.918 0 1 0 5.917 5.917 5.919 5.919 0 0 0-5.917-5.917zm0 9.755a3.838 3.838 0 1 1 0-7.676 3.838 3.838 0 0 1 0 7.676zm7.531-9.988a1.38 1.38 0 1 1-2.761 0 1.38 1.38 0 0 1 2.761 0z"/></symbol><symbol id="icon-linkedIn" viewBox="0 0 31 32"><path d="M24.72 4.48H6c-1.188 0-2.16.972-2.16 2.16v18.72c0 1.188.972 2.16 2.16 2.16h18.72c1.188 0 2.16-.972 2.16-2.16V6.64c0-1.188-.972-2.16-2.16-2.16zM12.48 23.2H9.6V13.12h2.88V23.2zm-1.44-11.52a1.44 1.44 0 1 1 0-2.88 1.44 1.44 0 1 1 0 2.88zM22.56 23.2h-2.88v-5.76a1.44 1.44 0 1 0-2.88 0v5.76h-2.88V13.12h2.88v1.786c.594-.814 1.503-1.786 2.52-1.786 1.791 0 3.24 1.611 3.24 3.6v6.48z"/></symbol><symbol id="icon-youtube" viewBox="0 0 31 32"><path d="M27.639 9.86a3.199 3.199 0 0 0-2.255-2.261C23.38 7.049 15.36 7.04 15.36 7.04s-8.018-.009-10.024.517a3.272 3.272 0 0 0-2.261 2.275c-.529 2.004-.534 6.162-.534 6.162s-.005 4.178.52 6.162a3.204 3.204 0 0 0 2.257 2.259c2.025.55 10.022.559 10.022.559s8.019.009 10.024-.516a3.221 3.221 0 0 0 2.262-2.257c.53-2.003.534-6.159.534-6.159s.026-4.179-.521-6.184zm-14.844 9.986.006-7.68 6.665 3.846-6.671 3.834z"/></symbol></defs></svg>