<svg xmlns="http://www.w3.org/2000/svg" aria-hidden="true" style="position:absolute;width:0;height:0;overflow:hidden">
  <defs>
    <symbol id="icon-price_1" viewBox="0 0 49 32">
      <path d="M7.646 27.822c-.928 0-1.856-.069-2.784-.208s-1.787-.315-2.576-.528c-.789-.224-1.445-.459-1.968-.704l.416-3.232c.576.277 1.269.565 2.08.864.821.299 1.707.549 2.656.752s1.909.304 2.88.304c1.44 0 2.581-.261 3.424-.784.853-.533 1.28-1.36 1.28-2.48 0-.843-.213-1.531-.64-2.064-.427-.544-1.072-1.008-1.936-1.392-.853-.384-1.925-.768-3.216-1.152a23.379 23.379 0 0 1-3.392-1.28c-1.035-.501-1.867-1.168-2.496-2-.619-.843-.928-1.957-.928-3.344 0-1.184.304-2.229.912-3.136.619-.917 1.52-1.632 2.704-2.144 1.195-.512 2.656-.768 4.384-.768 1.472 0 2.821.16 4.048.48 1.237.32 2.256.672 3.056 1.056l-.32 3.232c-1.216-.725-2.379-1.243-3.488-1.552a12.588 12.588 0 0 0-3.424-.464c-1.312 0-2.4.245-3.264.736-.853.491-1.28 1.291-1.28 2.4 0 .747.192 1.36.576 1.84.384.469.955.875 1.712 1.216.757.331 1.701.667 2.832 1.008 1.557.469 2.896 1.008 4.016 1.616 1.12.597 1.979 1.339 2.576 2.224.597.875.896 1.963.896 3.264 0 .96-.181 1.824-.544 2.592s-.907 1.424-1.632 1.968c-.725.544-1.637.96-2.736 1.248-1.088.288-2.363.432-3.824.432zm-.288 4.16.32-5.696h1.856l.32 5.696H7.358zm.32-26.144L7.358.366h2.496l-.32 5.472H7.678zm14.944 21.536V9.358c-.768.619-1.403 1.061-1.904 1.328s-.976.475-1.424.624l-.512-2.848a9.218 9.218 0 0 0 1.76-.816 10.806 10.806 0 0 0 1.68-1.232 6.812 6.812 0 0 0 1.264-1.44h2.08v22.4h-2.944zm16.997.448c-1.973 0-3.664-.507-5.072-1.52s-2.491-2.411-3.248-4.192c-.747-1.781-1.12-3.824-1.12-6.128s.4-4.315 1.2-6.032c.8-1.717 1.909-3.051 3.328-4s3.056-1.424 4.912-1.424c1.899 0 3.552.475 4.96 1.424 1.419.949 2.517 2.283 3.296 4 .789 1.717 1.184 3.728 1.184 6.032s-.373 4.347-1.12 6.128c-.747 1.781-1.824 3.179-3.232 4.192s-3.104 1.52-5.088 1.52zm0-2.752c1.323 0 2.443-.352 3.36-1.056.928-.704 1.632-1.733 2.112-3.088.491-1.355.736-3.003.736-4.944 0-2.912-.565-5.088-1.696-6.528-1.12-1.451-2.624-2.176-4.512-2.176-1.792 0-3.275.725-4.448 2.176-1.173 1.44-1.76 3.616-1.76 6.528 0 1.941.24 3.589.72 4.944.491 1.355 1.195 2.384 2.112 3.088.928.704 2.053 1.056 3.376 1.056z"/>
    </symbol>
    <symbol id="icon-price_2" viewBox="0 0 52 32">
      <path d="M7.324 27.822c-.928 0-1.856-.069-2.784-.208s-1.787-.315-2.576-.528c-.789-.224-1.445-.459-1.968-.704l.416-3.232c.576.277 1.269.565 2.08.864.821.299 1.707.549 2.656.752s1.909.304 2.88.304c1.44 0 2.581-.261 3.424-.784.853-.533 1.28-1.36 1.28-2.48 0-.843-.213-1.531-.64-2.064-.427-.544-1.072-1.008-1.936-1.392-.853-.384-1.925-.768-3.216-1.152a23.379 23.379 0 0 1-3.392-1.28c-1.035-.501-1.867-1.168-2.496-2-.619-.843-.928-1.957-.928-3.344 0-1.184.304-2.229.912-3.136.619-.917 1.52-1.632 2.704-2.144 1.195-.512 2.656-.768 4.384-.768 1.472 0 2.821.16 4.048.48 1.237.32 2.256.672 3.056 1.056l-.32 3.232c-1.216-.725-2.379-1.243-3.488-1.552a12.588 12.588 0 0 0-3.424-.464c-1.312 0-2.4.245-3.264.736-.853.491-1.28 1.291-1.28 2.4 0 .747.192 1.36.576 1.84.384.469.955.875 1.712 1.216.757.331 1.701.667 2.832 1.008 1.557.469 2.896 1.008 4.016 1.616 1.12.597 1.979 1.339 2.576 2.224.597.875.896 1.963.896 3.264 0 .96-.181 1.824-.544 2.592s-.907 1.424-1.632 1.968c-.725.544-1.637.96-2.736 1.248-1.088.288-2.363.432-3.824.432zm-.288 4.16.32-5.696h1.856l.32 5.696H7.036zm.32-26.144L7.036.366h2.496l-.32 5.472H7.356zm19.455 21.984c-1.568 0-2.912-.347-4.032-1.04-1.109-.704-1.957-1.68-2.544-2.928s-.88-2.699-.88-4.352c0-1.76.288-3.413.864-4.96a17.183 17.183 0 0 1 2.32-4.24c.971-1.291 2.043-2.421 3.216-3.392s2.347-1.765 3.52-2.384l2.08 1.952a18.399 18.399 0 0 0-2.752 1.68 17.876 17.876 0 0 0-2.432 2.144 15.644 15.644 0 0 0-1.952 2.544 12.583 12.583 0 0 0-1.296 2.928 11.072 11.072 0 0 0-.464 3.216l-1.024-1.728c.512-1.024 1.296-1.835 2.352-2.432 1.067-.597 2.309-.896 3.728-.896 1.301 0 2.453.299 3.456.896 1.003.587 1.787 1.392 2.352 2.416s.848 2.181.848 3.472c0 1.387-.309 2.613-.928 3.68s-1.483 1.904-2.592 2.512c-1.099.608-2.379.912-3.84.912zm0-2.624c1.28 0 2.304-.421 3.072-1.264.768-.853 1.152-1.893 1.152-3.12 0-1.205-.384-2.213-1.152-3.024-.768-.821-1.792-1.232-3.072-1.232s-2.309.411-3.088 1.232c-.779.821-1.168 1.84-1.168 3.056 0 1.259.389 2.299 1.168 3.12s1.808 1.232 3.088 1.232zm16.94 2.624c-1.184 0-2.32-.155-3.408-.464s-2.032-.72-2.832-1.232l.736-2.816c.789.427 1.611.795 2.464 1.104s1.813.464 2.88.464c1.429 0 2.587-.4 3.472-1.2.885-.811 1.328-1.893 1.328-3.248 0-1.536-.48-2.704-1.44-3.504s-2.208-1.2-3.744-1.2c-.811 0-1.579.059-2.304.176-.715.117-1.451.272-2.208.464l1.376-11.392h10.56l-.128 2.88h-7.936l-.832 7.008-.672-1.312c.48-.096.987-.171 1.52-.224a13.547 13.547 0 0 1 1.616-.096c1.589 0 2.944.315 4.064.944 1.12.619 1.973 1.472 2.56 2.56.597 1.088.896 2.32.896 3.696 0 1.515-.352 2.827-1.056 3.936-.693 1.099-1.643 1.952-2.848 2.56-1.195.597-2.549.896-4.064.896z"/>
    </symbol>
    <symbol id="icon-price_3" viewBox="0 0 58 32">
      <path d="M7.458 27.822c-.928 0-1.856-.069-2.784-.208s-1.787-.315-2.576-.528c-.789-.224-1.445-.459-1.968-.704l.416-3.232c.576.277 1.269.565 2.08.864.821.299 1.707.549 2.656.752s1.909.304 2.88.304c1.44 0 2.581-.261 3.424-.784.853-.533 1.28-1.36 1.28-2.48 0-.843-.213-1.531-.64-2.064-.427-.544-1.072-1.008-1.936-1.392-.853-.384-1.925-.768-3.216-1.152a23.379 23.379 0 0 1-3.392-1.28c-1.035-.501-1.867-1.168-2.496-2-.619-.843-.928-1.957-.928-3.344 0-1.184.304-2.229.912-3.136.619-.917 1.52-1.632 2.704-2.144 1.195-.512 2.656-.768 4.384-.768 1.472 0 2.821.16 4.048.48 1.237.32 2.256.672 3.056 1.056l-.32 3.232c-1.216-.725-2.379-1.243-3.488-1.552a12.588 12.588 0 0 0-3.424-.464c-1.312 0-2.4.245-3.264.736-.853.491-1.28 1.291-1.28 2.4 0 .747.192 1.36.576 1.84.384.469.955.875 1.712 1.216.757.331 1.701.667 2.832 1.008 1.557.469 2.896 1.008 4.016 1.616 1.12.597 1.979 1.339 2.576 2.224.597.875.896 1.963.896 3.264 0 .96-.181 1.824-.544 2.592s-.907 1.424-1.632 1.968c-.725.544-1.637.96-2.736 1.248-1.088.288-2.363.432-3.824.432zm-.288 4.16.32-5.696h1.856l.32 5.696H7.17zm.32-26.144L7.17.366h2.496l-.32 5.472H7.49zm19.712 21.984c-1.6 0-2.981-.288-4.144-.864-1.163-.587-2.059-1.392-2.688-2.416-.629-1.035-.944-2.224-.944-3.568 0-1.387.325-2.597.976-3.632s1.557-1.84 2.72-2.416c1.173-.576 2.533-.864 4.08-.864s2.901.288 4.064.864c1.173.576 2.085 1.381 2.736 2.416s.976 2.245.976 3.632c0 1.344-.32 2.533-.96 3.568-.629 1.024-1.525 1.829-2.688 2.416-1.163.576-2.539.864-4.128.864zm0-2.752c1.472 0 2.613-.373 3.424-1.12.811-.757 1.216-1.749 1.216-2.976 0-1.28-.405-2.336-1.216-3.168s-1.952-1.248-3.424-1.248-2.613.416-3.424 1.248-1.216 1.888-1.216 3.168c0 1.227.405 2.219 1.216 2.976.811.747 1.952 1.12 3.424 1.12zm0-8.672c-1.248 0-2.384-.245-3.408-.736-1.013-.501-1.824-1.189-2.432-2.064s-.912-1.883-.912-3.024c0-.981.229-1.936.688-2.864s1.184-1.691 2.176-2.288c.992-.597 2.288-.896 3.888-.896s2.885.299 3.856.896c.971.597 1.675 1.36 2.112 2.288s.656 1.883.656 2.864c0 1.141-.272 2.149-.816 3.024s-1.312 1.563-2.304 2.064c-.992.491-2.16.736-3.504.736zm0-2.496c1.184 0 2.075-.325 2.672-.976a3.357 3.357 0 0 0 .912-2.352c0-.981-.304-1.776-.912-2.384-.597-.608-1.488-.912-2.672-.912s-2.101.304-2.752.912c-.64.608-.96 1.403-.96 2.384 0 .907.32 1.691.96 2.352.651.651 1.568.976 2.752.976zM48.4 27.822c-1.973 0-3.664-.507-5.072-1.52s-2.491-2.411-3.248-4.192c-.747-1.781-1.12-3.824-1.12-6.128s.4-4.315 1.2-6.032c.8-1.717 1.909-3.051 3.328-4s3.056-1.424 4.912-1.424c1.899 0 3.552.475 4.96 1.424 1.419.949 2.517 2.283 3.296 4 .789 1.717 1.184 3.728 1.184 6.032s-.373 4.347-1.12 6.128c-.747 1.781-1.824 3.179-3.232 4.192s-3.104 1.52-5.088 1.52zm0-2.752c1.323 0 2.443-.352 3.36-1.056.928-.704 1.632-1.733 2.112-3.088.491-1.355.736-3.003.736-4.944 0-2.912-.565-5.088-1.696-6.528-1.12-1.451-2.624-2.176-4.512-2.176-1.792 0-3.275.725-4.448 2.176-1.173 1.44-1.76 3.616-1.76 6.528 0 1.941.24 3.589.72 4.944.491 1.355 1.195 2.384 2.112 3.088.928.704 2.053 1.056 3.376 1.056z"/>
    </symbol>
    <symbol id="icon-company-logo" viewBox="0 0 76 32">
      <path d="M13.575 2.542c.332.165.705.638.955.918 2.148 2.4 3.275 5.457 3.076 8.674-.193 3.114-1.731 5.879-4.039 7.922-.437-.299-.837-.724-1.187-1.119-1.961-2.218-3.035-5.333-2.848-8.289.193-3.047 1.751-6.097 4.042-8.106z"/>
      <path d="M22.718 6.9c.006.011.014.021.019.032.122.249.158.644.189.92.162 1.437.028 2.878-.478 4.239-1.263 3.4-4.182 5.902-7.409 7.385-.038 0-.013.003-.071-.031.197-.323.472-.611.7-.914.348-.473.663-.97.944-1.485.989-1.819 1.461-3.82 1.46-5.883 0-.586-.014-1.171-.183-1.737.303-.336.674-.619 1.034-.891 1.16-.878 2.329-1.489 3.796-1.635zM4.391 6.914c.174.007.35.029.522.056 1.326.202 2.486.908 3.521 1.725.289.228.605.466.823.765-.551 2.829.18 5.795 1.642 8.242.234.389.486.766.756 1.131.129.174.283.331.398.514l-.041.053c-2.412-1.031-4.671-2.857-6.125-5.038-1.525-2.289-2.029-4.754-1.498-7.447z"/>
      <path d="M25.078 13.227c.385-.046 1.246-.094 1.569.111.016.048.021.053.023.112.006.226-.141.563-.217.774a8.993 8.993 0 0 1-2.543 3.766c-2.263 2.001-5.196 2.719-8.159 2.528-.56-.058-1.136-.097-1.674-.269 2.482-.763 4.843-2.323 6.554-4.271.421-.479.729-1.035 1.138-1.516.777-.914 2.185-1.156 3.311-1.235zM1.366 13.303c1.157-.136 2.726.054 3.679.774.566.428.908 1.223 1.376 1.765a14.636 14.636 0 0 0 5.359 3.907c.439.188.891.384 1.355.498l-.928.155c-2.702.389-5.503-.094-7.815-1.597-1.575-1.024-2.683-2.428-3.335-4.18-.096-.257-.239-.536-.288-.803a.463.463 0 0 1 .088-.392c.145-.107.334-.106.509-.127zM48.562 10.967c.901-.007 1.883-.088 2.773.042.572.083 1.154.289 1.502.779.256.361.34.868.26 1.299-.097.528-.431.834-.855 1.118.102.043.201.09.299.142.374.203.64.553.749.963.15.56.03 1.137-.249 1.634a1.453 1.453 0 0 1-.219.257c-.855.811-2.73.654-3.834.644-.213-.002-.492.016-.65-.145a.53.53 0 0 1-.06-.225c-.073-1.186-.007-2.417-.007-3.608 0-.843-.085-1.941.025-2.756.085-.106.139-.106.267-.145zm3.017 4.173c-.477-.311-1.28-.221-1.834-.22l.003 1.537c.614.004 1.33.098 1.874-.231.128-.189.257-.469.22-.704a.54.54 0 0 0-.262-.382zm-.227-2.733c-.455-.274-1.093-.205-1.605-.202v1.476c.549.004 1.204.086 1.683-.224.129-.185.254-.451.205-.684-.036-.171-.137-.278-.283-.366zM40.164 12.565a1.53 1.53 0 0 1 .411.022c.412.083.613.386.833.709.013-.113.021-.235.048-.345a.345.345 0 0 1 .194-.241c.166-.089.524-.094.698-.03.127.047.269.158.312.291.13.394.079 4.247.004 4.774-.049.347-.157.69-.332.994-.282.491-.763.811-1.303.957-.761.206-1.627.14-2.306-.269-.303-.182-.445-.417-.525-.755.026-.122.056-.241.161-.32.34-.257 1.075.174 1.453.245.325.06.676.027.946-.177.446-.336.519-.957.595-1.47-.298.319-.582.575-1.022.683a1.797 1.797 0 0 1-1.409-.235c-.54-.358-.841-.972-.951-1.595-.135-.759-.017-1.666.443-2.301.439-.605 1.042-.828 1.751-.937zm.081 1.162c-.355.134-.551.298-.703.652-.187.435-.193 1.065-.01 1.501.097.23.291.472.535.555.161.054.356.031.522.019.292-.104.459-.228.597-.511.213-.436.22-1.051.057-1.506-.094-.265-.281-.525-.546-.639a1.057 1.057 0 0 0-.452-.07zM69.647 12.606c.349-.046.692-.031 1.021.106.455.188.691.531.871.969.092-.231.194-.464.357-.656.258-.304.596-.425.988-.44.451-.017.913.086 1.244.41.217.213.351.498.423.791.194.778.085 2.451.088 3.331 0 .135.017.56-.088.64-.179.135-.814.105-1.037.074-.13-.018-.211-.088-.265-.207-.083-.182-.039-.507-.036-.708.009-.653.169-2.456-.217-2.932a.502.502 0 0 0-.356-.188c-.208-.015-.472.057-.623.205-.535.524-.358 2.389-.353 3.122.001.148.007.31-.012.457-.008.065-.031.14-.09.174-.228.131-.783.111-1.035.052-.131-.031-.187-.075-.234-.202-.078-.211-.034-.523-.03-.746.012-.654.167-2.28-.166-2.77a.619.619 0 0 0-.424-.265c-.199-.032-.406-.006-.568.122-.651.514-.473 2.314-.47 3.058.001.179.037.435-.004.602-.017.07-.037.112-.097.152-.209.137-.776.108-1.027.058-.105-.021-.172-.085-.218-.181-.064-.136-.083-4.047-.059-4.435a.841.841 0 0 1 .078-.32.495.495 0 0 1 .301-.248c.31-.1.696.011.969.163.066.244.019.564.008.819.032-.065.064-.13.098-.194.242-.467.468-.657.962-.814zM64.019 12.627a2.632 2.632 0 1 1 .108 5.264 2.632 2.632 0 0 1-.108-5.264zm-.178 1.145c-.387.172-.598.369-.747.773-.179.484-.15 1.159.08 1.621.124.248.315.451.583.54a.957.957 0 0 0 .543.027c.371-.155.592-.353.745-.733.191-.477.189-1.114-.03-1.582a1.143 1.143 0 0 0-.695-.625c-.153-.045-.32-.035-.477-.021zM34.849 12.634a2.632 2.632 0 1 1 .234 5.258 2.632 2.632 0 0 1-.233-5.258zm.409 1.172a1.136 1.136 0 0 0-.515-.034c-.388.192-.611.392-.759.816-.168.481-.143 1.167.099 1.618.132.246.332.426.602.509.165.05.352.056.52.016.37-.154.587-.353.736-.733a2.142 2.142 0 0 0-.044-1.588 1.116 1.116 0 0 0-.639-.604zM58.122 12.663c.934-.151 1.877.212 2.47.949s.743 1.736.394 2.615a2.629 2.629 0 1 1-2.864-3.564zm.215 1.106c-.39.166-.614.354-.772.758-.185.473-.166 1.128.052 1.588.132.277.357.506.654.601.149.048.317.047.471.028.389-.164.615-.348.776-.752.187-.469.184-1.117-.034-1.576a1.147 1.147 0 0 0-.637-.604 1.22 1.22 0 0 0-.51-.043zM44.98 12.609c.329-.039.646-.033.971.043.492.114.905.4 1.156.842.134.236.212.496.249.765.057.415.09 3.039-.004 3.4a.424.424 0 0 1-.282.164c-.21.045-.672.072-.842-.086-.149-.137-.118-.424-.12-.609-.247.365-.495.659-.944.771-.501.125-.966-.022-1.398-.271-.184-.169-.324-.343-.403-.583-.133-.406-.09-.953.117-1.326.504-.906 1.69-.852 2.558-1.108l.054-.016c-.035-.108-.069-.219-.114-.324-.491-1.132-1.715.105-2.307-.207a.491.491 0 0 1-.236-.319c-.041-.172.006-.283.1-.426.318-.485.914-.607 1.444-.708zm1.055 3.025c-.361.099-1.038.208-1.253.536a.406.406 0 0 0-.03.365c.032.083.095.156.15.224.373.025.607-.002.892-.261.173-.158.331-.411.323-.655-.002-.061-.019-.122-.033-.181l-.049-.028zM30.265 13.583c.129-.411 1.135-2.375 1.455-2.559.166-.096 1.055-.11 1.233-.029.114.052.127.083.179.19-.091.509-1.215 2.215-1.547 2.772l-.584.971c.002.584.105 2.365-.099 2.788a.49.49 0 0 1-.211.106c-.274.064-.82.045-1.061-.107-.187-.246-.089-2.291-.089-2.744-.299-.477-2.225-3.553-2.174-3.847.064-.092.105-.114.208-.155.325-.01.986-.096 1.255.067.349.212 1.307 2.115 1.436 2.547zM54.121 10.968c.341-.009.898-.094 1.193.082.083.561.05 1.156.052 1.722l.003 2.622c0 .685.075 1.509-.013 2.181-.017.134-.1.177-.197.254-.355.012-.901.1-1.193-.131-.069-.262-.112-6.316-.046-6.555.032-.113.106-.126.202-.175zM13.715 20.431c.47.167.943.301 1.436.381.85.138 1.837.097 2.6.54.564.327 1.141 1.092 1.3 1.727.029.116.021.126-.039.223-.59.213-1.163.162-1.75-.03-1.414-.462-2.856-1.493-3.548-2.841zM13.449 20.434c.03-.003.059.013.087.021-.001.013-.001.027-.004.041-.073.301-1.237 1.528-1.506 1.741-.929.733-2.308 1.316-3.507 1.173-.032-.007-.077-.016-.106-.029-.065-.03-.105-.054-.122-.123-.045-.187.061-.405.146-.568.275-.525.704-1.141 1.243-1.424.664-.349 1.644-.348 2.382-.479a11.77 11.77 0 0 0 1.386-.352z"/>
    </symbol>
    <symbol id="icon-facebook" viewBox="0 0 31 32">
      <path d="M28.16 16.388c0-7.112-5.731-12.878-12.8-12.878S2.56 9.276 2.56 16.388c0 6.428 4.681 11.756 10.8 12.722v-8.999h-3.25v-3.723h3.25v-2.837c0-3.228 1.911-5.01 4.835-5.01 1.401 0 2.865.252 2.865.252v3.169h-1.614c-1.59 0-2.086.993-2.086 2.011v2.416h3.55l-.567 3.723H17.36v8.999c6.119-.966 10.8-6.294 10.8-12.722z"/>
    </symbol>
    <symbol id="icon-instagram" viewBox="0 0 31 32">
      <path d="M15.358 6.555c3.078 0 3.442.014 4.652.068 1.125.05 1.732.238 2.137.396.536.207.922.459 1.323.86.405.405.652.788.864 1.323.158.405.346 1.017.396 2.137.054 1.215.068 1.579.068 4.653s-.014 3.442-.068 4.653c-.05 1.125-.238 1.732-.396 2.137a3.546 3.546 0 0 1-.86 1.322 3.62 3.62 0 0 1-1.323.864c-.405.158-1.017.346-2.137.396-1.215.054-1.58.068-4.653.068s-3.442-.014-4.653-.068c-1.125-.05-1.732-.238-2.137-.396a3.558 3.558 0 0 1-1.323-.86 3.62 3.62 0 0 1-.864-1.323c-.158-.405-.346-1.017-.396-2.137-.054-1.215-.068-1.58-.068-4.653s.014-3.442.068-4.653c.05-1.125.238-1.732.396-2.137.207-.536.459-.922.86-1.323a3.62 3.62 0 0 1 1.323-.864c.405-.158 1.017-.346 2.137-.396 1.21-.054 1.575-.068 4.653-.068h.001zm0-2.074c-3.127 0-3.518.014-4.747.068-1.224.054-2.065.252-2.794.536a5.609 5.609 0 0 0-2.042 1.332 5.636 5.636 0 0 0-1.332 2.038c-.284.734-.482 1.57-.536 2.794-.054 1.233-.068 1.624-.068 4.751s.014 3.518.068 4.747c.054 1.224.252 2.065.536 2.794.297.76.688 1.404 1.332 2.042a5.65 5.65 0 0 0 2.038 1.328c.734.284 1.57.482 2.794.536 1.228.054 1.62.068 4.747.068s3.519-.014 4.747-.068c1.224-.054 2.065-.252 2.794-.536.756-.292 1.4-.688 2.038-1.328s1.035-1.282 1.328-2.038c.284-.734.482-1.57.536-2.794.054-1.228.068-1.62.068-4.747s-.014-3.518-.068-4.747c-.054-1.224-.252-2.065-.536-2.794a5.405 5.405 0 0 0-1.318-2.047 5.621 5.621 0 0 0-2.038-1.327c-.734-.284-1.57-.482-2.794-.536-1.233-.058-1.624-.072-4.751-.072l-.001.001z"/>
      <path d="M15.357 10.082a5.918 5.918 0 1 0 5.917 5.917 5.919 5.919 0 0 0-5.917-5.917zm0 9.755a3.838 3.838 0 1 1 0-7.676 3.838 3.838 0 0 1 0 7.676zM22.888 9.849a1.38 1.38 0 1 1-2.761 0 1.38 1.38 0 0 1 2.761 0z"/>
    </symbol>
    <symbol id="icon-linkedIn" viewBox="0 0 31 32">
      <path d="M24.72 4.48H6c-1.188 0-2.16.972-2.16 2.16v18.72c0 1.188.972 2.16 2.16 2.16h18.72c1.188 0 2.16-.972 2.16-2.16V6.64c0-1.188-.972-2.16-2.16-2.16zM12.48 23.2H9.6V13.12h2.88V23.2zm-1.44-11.52a1.44 1.44 0 1 1 0-2.88 1.44 1.44 0 1 1 0 2.88zM22.56 23.2h-2.88v-5.76a1.44 1.44 0 1 0-2.88 0v5.76h-2.88V13.12h2.88v1.786c.594-.814 1.503-1.786 2.52-1.786 1.791 0 3.24 1.611 3.24 3.6v6.48z"/>
    </symbol>
    <symbol id="icon-menu" viewBox="0 0 32 32">
      <path d="M5.333 8h21.333v2.667H5.333V8zm0 6.667h21.333v2.667H5.333v-2.667zm0 6.666h21.333V24H5.333v-2.667z"/>
    </symbol>
    <symbol id="icon-close" viewBox="0 0 32 32">
      <path d="m21.589 8.459-5.657 5.656-5.656-5.656-1.885 1.885L14.047 16l-5.656 5.656 1.885 1.885 5.656-5.656 5.657 5.656 1.885-1.885L17.818 16l5.656-5.656-1.885-1.885z"/>
    </symbol>
    <symbol id="icon-youtube" viewBox="0 0 31 32">
      <path d="M27.639 9.86a3.199 3.199 0 0 0-2.255-2.261C23.38 7.049 15.36 7.04 15.36 7.04s-8.018-.009-10.024.517a3.272 3.272 0 0 0-2.261 2.275c-.529 2.004-.534 6.162-.534 6.162s-.005 4.178.52 6.162a3.204 3.204 0 0 0 2.257 2.259c2.025.55 10.022.559 10.022.559s8.019.009 10.024-.516a3.221 3.221 0 0 0 2.262-2.257c.53-2.003.534-6.159.534-6.159s.026-4.179-.521-6.184zm-14.844 9.986.006-7.68 6.665 3.846-6.671 3.834z"/>
    </symbol>
  </defs>
</svg>
